<svg version="1.1"
    viewBox="0.0 0.0 960.0 720.0"
    fill="none"
    stroke="none"
    stroke-linecap="square"
    stroke-miterlimit="10"
    xmlns="http://www.w3.org/2000/svg"><clipPath id="p.0"><path d="m0 0l960.0 0l0 720.0l-960.0 0l0 -720.0z" clip-rule="nonzero"/></clipPath><g clip-path="url(#p.0)"><path fill="#000000" fill-opacity="0.0" d="m0 0l960.0 0l0 720.0l-960.0 0z" fill-rule="evenodd"/><path fill="#000000" fill-opacity="0.0" d="m156.4252 70.85174l0 0c0 -37.040062 30.026901 -67.06696 67.066956 -67.06696l513.01575 0c17.787231 0 34.84601 7.0659633 47.423462 19.643457c12.577515 12.577496 19.643494 29.636238 19.643494 47.423504l0 268.25977c0 37.04007 -30.026917 67.066956 -67.066956 67.066956l-513.01575 0c-37.040054 0 -67.066956 -30.026886 -67.066956 -67.066956z" fill-rule="evenodd"/><path stroke="#ffffff" stroke-width="16.0" stroke-linejoin="round" stroke-linecap="butt" d="m156.4252 70.85174l0 0c0 -37.040062 30.026901 -67.06696 67.066956 -67.06696l513.01575 0c17.787231 0 34.84601 7.0659633 47.423462 19.643457c12.577515 12.577496 19.643494 29.636238 19.643494 47.423504l0 268.25977c0 37.04007 -30.026917 67.066956 -67.066956 67.066956l-513.01575 0c-37.040054 0 -67.066956 -30.026886 -67.066956 -67.066956z" fill-rule="evenodd"/><path fill="#ffffff" d="m303.79153 200.29297l0 0c0 -22.917648 16.343384 -41.496063 36.503937 -41.496063l0 0c9.6814575 0 18.96637 4.371887 25.812195 12.153915c6.8457947 7.782013 10.691742 18.3367 10.691742 29.342148l0 0c0 22.917633 -16.343353 41.496063 -36.503937 41.496063l0 0c-20.160553 0 -36.503937 -18.57843 -36.503937 -41.496063z" fill-rule="evenodd"/><path stroke="#ffffff" stroke-width="1.0" stroke-linejoin="round" stroke-linecap="butt" d="m303.79153 200.29297l0 0c0 -22.917648 16.343384 -41.496063 36.503937 -41.496063l0 0c9.6814575 0 18.96637 4.371887 25.812195 12.153915c6.8457947 7.782013 10.691742 18.3367 10.691742 29.342148l0 0c0 22.917633 -16.343353 41.496063 -36.503937 41.496063l0 0c-20.160553 0 -36.503937 -18.57843 -36.503937 -41.496063z" fill-rule="evenodd"/><path fill="#ffffff" d="m553.56494 151.75557l0 0c0 -22.917648 16.343384 -41.496063 36.503967 -41.496063l0 0c9.6813965 0 18.966309 4.371895 25.812134 12.153915c6.845825 7.782013 10.691772 18.3367 10.691772 29.342148l0 0c0 22.917648 -16.343384 41.496063 -36.503906 41.496063l0 0c-20.160583 0 -36.503967 -18.578415 -36.503967 -41.496063z" fill-rule="evenodd"/><path stroke="#ffffff" stroke-width="1.0" stroke-linejoin="round" stroke-linecap="butt" d="m553.56494 151.75557l0 0c0 -22.917648 16.343384 -41.496063 36.503967 -41.496063l0 0c9.6813965 0 18.966309 4.371895 25.812134 12.153915c6.845825 7.782013 10.691772 18.3367 10.691772 29.342148l0 0c0 22.917648 -16.343384 41.496063 -36.503906 41.496063l0 0c-20.160583 0 -36.503967 -18.578415 -36.503967 -41.496063z" fill-rule="evenodd"/><path fill="#ffffff" d="m179.07726 481.36633l0 0c0 -4.325592 3.5065765 -7.832184 7.8321686 -7.832184l392.4931 0c2.0772705 0 4.069397 0.8251648 5.538208 2.2939758c1.468811 1.4688416 2.2940063 3.460968 2.2940063 5.538208l0 31.327759c0 4.3256226 -3.5065918 7.8321533 -7.8322144 7.8321533l-392.4931 0c-4.325592 0 -7.8321686 -3.5065308 -7.8321686 -7.8321533z" fill-rule="evenodd"/><path stroke="#ffffff" stroke-width="1.0" stroke-linejoin="round" stroke-linecap="butt" d="m179.07726 481.36633l0 0c0 -4.325592 3.5065765 -7.832184 7.8321686 -7.832184l392.4931 0c2.0772705 0 4.069397 0.8251648 5.538208 2.2939758c1.468811 1.4688416 2.2940063 3.460968 2.2940063 5.538208l0 31.327759c0 4.3256226 -3.5065918 7.8321533 -7.8322144 7.8321533l-392.4931 0c-4.325592 0 -7.8321686 -3.5065308 -7.8321686 -7.8321533z" fill-rule="evenodd"/><path fill="#ffffff" d="m179.07726 583.0021l0 0c0 -4.3255615 3.5065765 -7.8321533 7.8321686 -7.8321533l187.42227 0c2.0772095 0 4.0693665 0.8251343 5.5381775 2.2939453c1.468811 1.4688721 2.2940063 3.4609985 2.2940063 5.538208l0 31.327759c0 4.3256226 -3.5065918 7.8322144 -7.832184 7.8322144l-187.42227 0c-4.325592 0 -7.8321686 -3.5065918 -7.8321686 -7.8322144z" fill-rule="evenodd"/><path stroke="#ffffff" stroke-width="1.0" stroke-linejoin="round" stroke-linecap="butt" d="m179.07726 583.0021l0 0c0 -4.3255615 3.5065765 -7.8321533 7.8321686 -7.8321533l187.42227 0c2.0772095 0 4.0693665 0.8251343 5.5381775 2.2939453c1.468811 1.4688721 2.2940063 3.4609985 2.2940063 5.538208l0 31.327759c0 4.3256226 -3.5065918 7.8322144 -7.832184 7.8322144l-187.42227 0c-4.325592 0 -7.8321686 -3.5065918 -7.8321686 -7.8322144z" fill-rule="evenodd"/><path fill="#ffffff" d="m179.07726 684.6378l0 0c0 -4.3255615 3.5065765 -7.8321533 7.8321686 -7.8321533l443.73724 0c2.0772095 0 4.069336 0.8251953 5.538147 2.2940063c1.468811 1.468811 2.2940063 3.4609375 2.2940063 5.538147l0 31.327759c0 4.3256226 -3.5065918 7.8322144 -7.8321533 7.8322144l-443.73724 0l0 0c-4.325592 0 -7.8321686 -3.5065918 -7.8321686 -7.8322144z" fill-rule="evenodd"/><path stroke="#ffffff" stroke-width="1.0" stroke-linejoin="round" stroke-linecap="butt" d="m179.07726 684.6378l0 0c0 -4.3255615 3.5065765 -7.8321533 7.8321686 -7.8321533l443.73724 0c2.0772095 0 4.069336 0.8251953 5.538147 2.2940063c1.468811 1.468811 2.2940063 3.4609375 2.2940063 5.538147l0 31.327759c0 4.3256226 -3.5065918 7.8322144 -7.8321533 7.8322144l-443.73724 0l0 0c-4.325592 0 -7.8321686 -3.5065918 -7.8321686 -7.8322144z" fill-rule="evenodd"/></g></svg>